<svg width="46" height="13" viewBox="0 0 46 13" fill="none" xmlns="http://www.w3.org/2000/svg">
<path d="M7.65225 9.705H3.18225L2.37225 12H0.542246L4.44225 1.575H6.40725L10.2922 12H8.46225L7.65225 9.705ZM7.17225 8.385L5.41725 3.435L3.66225 8.385H7.17225ZM16.3019 3.63C17.0219 3.63 17.6619 3.8 18.2219 4.14C18.7919 4.48 19.2369 4.97 19.5569 5.61C19.8769 6.25 20.0369 7 20.0369 7.86C20.0369 8.73 19.8769 9.485 19.5569 10.125C19.2369 10.765 18.7919 11.255 18.2219 11.595C17.6619 11.935 17.0219 12.105 16.3019 12.105C15.5519 12.105 14.9119 11.92 14.3819 11.55C13.8519 11.18 13.4819 10.69 13.2719 10.08V12H11.5619V0.9H13.2719V5.655C13.4819 5.045 13.8519 4.555 14.3819 4.185C14.9119 3.815 15.5519 3.63 16.3019 3.63ZM15.7769 5.13C15.2969 5.13 14.8669 5.245 14.4869 5.475C14.1069 5.695 13.8069 6.015 13.5869 6.435C13.3669 6.845 13.2569 7.32 13.2569 7.86C13.2569 8.41 13.3669 8.89 13.5869 9.3C13.8069 9.71 14.1069 10.03 14.4869 10.26C14.8669 10.48 15.2969 10.59 15.7769 10.59C16.5369 10.59 17.1469 10.35 17.6069 9.87C18.0669 9.38 18.2969 8.71 18.2969 7.86C18.2969 7.02 18.0669 6.355 17.6069 5.865C17.1469 5.375 16.5369 5.13 15.7769 5.13ZM25.4639 3.63C26.2639 3.63 26.9839 3.8 27.6239 4.14C28.2639 4.48 28.7639 4.97 29.1239 5.61C29.4839 6.25 29.6639 7 29.6639 7.86C29.6639 8.73 29.4839 9.485 29.1239 10.125C28.7639 10.765 28.2639 11.255 27.6239 11.595C26.9839 11.935 26.2639 12.105 25.4639 12.105C24.6639 12.105 23.9439 11.935 23.3039 11.595C22.6739 11.255 22.1739 10.765 21.8039 10.125C21.4439 9.475 21.2639 8.72 21.2639 7.86C21.2639 7 21.4439 6.25 21.8039 5.61C22.1739 4.97 22.6739 4.48 23.3039 4.14C23.9439 3.8 24.6639 3.63 25.4639 3.63ZM25.4639 5.115C25.0239 5.115 24.6189 5.215 24.2489 5.415C23.8789 5.615 23.5789 5.925 23.3489 6.345C23.1289 6.755 23.0189 7.26 23.0189 7.86C23.0189 8.47 23.1289 8.98 23.3489 9.39C23.5789 9.8 23.8789 10.105 24.2489 10.305C24.6189 10.505 25.0239 10.605 25.4639 10.605C25.9039 10.605 26.3089 10.505 26.6789 10.305C27.0489 10.105 27.3439 9.8 27.5639 9.39C27.7939 8.98 27.9089 8.47 27.9089 7.86C27.9089 7.26 27.7939 6.755 27.5639 6.345C27.3439 5.925 27.0489 5.615 26.6789 5.415C26.3089 5.215 25.9039 5.115 25.4639 5.115ZM38.9279 3.735V12H37.2029V10.2C36.9929 10.81 36.6279 11.285 36.1079 11.625C35.5879 11.955 34.9829 12.12 34.2929 12.12C33.3329 12.12 32.5629 11.81 31.9829 11.19C31.4029 10.57 31.1129 9.685 31.1129 8.535V3.735H32.8229V8.355C32.8229 9.105 33.0129 9.685 33.3929 10.095C33.7729 10.495 34.2929 10.695 34.9529 10.695C35.6329 10.695 36.1779 10.475 36.5879 10.035C36.9979 9.595 37.2029 8.955 37.2029 8.115V3.735H38.9279ZM45.1309 10.515V12H44.0809C43.2009 12 42.5309 11.79 42.0709 11.37C41.6209 10.94 41.3959 10.23 41.3959 9.24V5.19H40.2109V3.735H41.3959V1.68H43.1209V3.735H45.1159V5.19H43.1209V9.27C43.1209 9.74 43.2059 10.065 43.3759 10.245C43.5559 10.425 43.8659 10.515 44.3059 10.515H45.1309Z" fill="#344563"/>
</svg>
