<svg width="88" height="44" viewBox="0 0 86 40" fill="none" xmlns="http://www.w3.org/2000/svg">
<path d="M17.8811 14.305C19.1811 14.305 20.2611 14.635 21.1211 15.295C21.9811 15.955 22.5611 16.85 22.8611 17.98H21.0461C20.7961 17.34 20.3961 16.835 19.8461 16.465C19.3061 16.085 18.6411 15.895 17.8511 15.895C17.2211 15.895 16.6561 16.05 16.1561 16.36C15.6661 16.67 15.2761 17.115 14.9861 17.695C14.7061 18.265 14.5661 18.935 14.5661 19.705C14.5661 20.465 14.7061 21.135 14.9861 21.715C15.2761 22.285 15.6661 22.725 16.1561 23.035C16.6561 23.345 17.2211 23.5 17.8511 23.5C18.6411 23.5 19.3061 23.315 19.8461 22.945C20.3961 22.565 20.7961 22.06 21.0461 21.43H22.8611C22.5611 22.56 21.9811 23.455 21.1211 24.115C20.2611 24.765 19.1811 25.09 17.8811 25.09C16.8811 25.09 15.9961 24.865 15.2261 24.415C14.4561 23.955 13.8611 23.32 13.4411 22.51C13.0211 21.69 12.8111 20.755 12.8111 19.705C12.8111 18.655 13.0211 17.725 13.4411 16.915C13.8611 16.095 14.4561 15.455 15.2261 14.995C15.9961 14.535 16.8811 14.305 17.8811 14.305ZM28.3472 16.63C29.1472 16.63 29.8672 16.8 30.5072 17.14C31.1472 17.48 31.6472 17.97 32.0072 18.61C32.3672 19.25 32.5472 20 32.5472 20.86C32.5472 21.73 32.3672 22.485 32.0072 23.125C31.6472 23.765 31.1472 24.255 30.5072 24.595C29.8672 24.935 29.1472 25.105 28.3472 25.105C27.5472 25.105 26.8272 24.935 26.1872 24.595C25.5572 24.255 25.0572 23.765 24.6872 23.125C24.3272 22.475 24.1472 21.72 24.1472 20.86C24.1472 20 24.3272 19.25 24.6872 18.61C25.0572 17.97 25.5572 17.48 26.1872 17.14C26.8272 16.8 27.5472 16.63 28.3472 16.63ZM28.3472 18.115C27.9072 18.115 27.5022 18.215 27.1322 18.415C26.7622 18.615 26.4622 18.925 26.2322 19.345C26.0122 19.755 25.9022 20.26 25.9022 20.86C25.9022 21.47 26.0122 21.98 26.2322 22.39C26.4622 22.8 26.7622 23.105 27.1322 23.305C27.5022 23.505 27.9072 23.605 28.3472 23.605C28.7872 23.605 29.1922 23.505 29.5622 23.305C29.9322 23.105 30.2272 22.8 30.4472 22.39C30.6772 21.98 30.7922 21.47 30.7922 20.86C30.7922 20.26 30.6772 19.755 30.4472 19.345C30.2272 18.925 29.9322 18.615 29.5622 18.415C29.1922 18.215 28.7872 18.115 28.3472 18.115ZM38.8113 16.6C39.7713 16.6 40.5413 16.91 41.1213 17.53C41.7013 18.15 41.9913 19.035 41.9913 20.185V25H40.2813V20.365C40.2813 19.625 40.0913 19.055 39.7113 18.655C39.3313 18.245 38.8113 18.04 38.1513 18.04C37.4713 18.04 36.9263 18.26 36.5163 18.7C36.1063 19.13 35.9013 19.765 35.9013 20.605V25H34.1913V16.735H35.9013V18.55C36.1213 17.93 36.4913 17.45 37.0112 17.11C37.5313 16.77 38.1313 16.6 38.8113 16.6ZM48.1461 23.515V25H47.0961C46.2161 25 45.5461 24.79 45.0861 24.37C44.6361 23.94 44.4111 23.23 44.4111 22.24V18.19H43.2261V16.735H44.4111V14.68H46.1361V16.735H48.1311V18.19H46.1361V22.27C46.1361 22.74 46.2211 23.065 46.3911 23.245C46.5711 23.425 46.8811 23.515 47.3211 23.515H48.1461ZM53.0629 16.63C53.8129 16.63 54.4529 16.815 54.9829 17.185C55.5129 17.555 55.8879 18.045 56.1079 18.655V16.735H57.8179V25H56.1079V23.08C55.8879 23.69 55.5129 24.18 54.9829 24.55C54.4529 24.92 53.8129 25.105 53.0629 25.105C52.3429 25.105 51.6979 24.935 51.1279 24.595C50.5679 24.255 50.1279 23.765 49.8079 23.125C49.4879 22.485 49.3279 21.73 49.3279 20.86C49.3279 20 49.4879 19.25 49.8079 18.61C50.1279 17.97 50.5679 17.48 51.1279 17.14C51.6979 16.8 52.3429 16.63 53.0629 16.63ZM53.5879 18.13C52.8279 18.13 52.2179 18.375 51.7579 18.865C51.3079 19.345 51.0829 20.01 51.0829 20.86C51.0829 21.71 51.3079 22.38 51.7579 22.87C52.2179 23.35 52.8279 23.59 53.5879 23.59C54.0679 23.59 54.4979 23.48 54.8779 23.26C55.2579 23.03 55.5579 22.71 55.7779 22.3C55.9979 21.89 56.1079 21.41 56.1079 20.86C56.1079 20.32 55.9979 19.845 55.7779 19.435C55.5579 19.015 55.2579 18.695 54.8779 18.475C54.4979 18.245 54.0679 18.13 53.5879 18.13ZM63.545 16.63C64.615 16.63 65.5 16.915 66.2 17.485C66.9 18.045 67.335 18.81 67.505 19.78H65.69C65.59 19.26 65.345 18.855 64.955 18.565C64.575 18.265 64.095 18.115 63.515 18.115C62.855 18.115 62.305 18.35 61.865 18.82C61.425 19.28 61.205 19.96 61.205 20.86C61.205 21.76 61.425 22.445 61.865 22.915C62.305 23.385 62.855 23.62 63.515 23.62C64.095 23.62 64.575 23.47 64.955 23.17C65.345 22.87 65.59 22.46 65.69 21.94H67.505C67.335 22.91 66.9 23.68 66.2 24.25C65.5 24.82 64.615 25.105 63.545 25.105C62.745 25.105 62.035 24.935 61.415 24.595C60.805 24.255 60.325 23.765 59.975 23.125C59.625 22.485 59.45 21.73 59.45 20.86C59.45 20 59.625 19.25 59.975 18.61C60.325 17.97 60.805 17.48 61.415 17.14C62.035 16.8 62.745 16.63 63.545 16.63ZM73.3121 23.515V25H72.2621C71.3821 25 70.7121 24.79 70.2521 24.37C69.8021 23.94 69.5771 23.23 69.5771 22.24V18.19H68.3921V16.735H69.5771V14.68H71.3021V16.735H73.2971V18.19H71.3021V22.27C71.3021 22.74 71.3871 23.065 71.5571 23.245C71.7371 23.425 72.0471 23.515 72.4871 23.515H73.3121Z" fill="#344563"/>
</svg>
