<svg width="61" height="13" viewBox="0 0 61 13" fill="none" xmlns="http://www.w3.org/2000/svg">
<path d="M7.49215 4.68C7.49215 5.21 7.36715 5.71 7.11715 6.18C6.86715 6.65 6.46715 7.035 5.91715 7.335C5.36715 7.625 4.66215 7.77 3.80215 7.77H1.91215V12H0.202148V1.575H3.80215C4.60215 1.575 5.27715 1.715 5.82715 1.995C6.38715 2.265 6.80215 2.635 7.07215 3.105C7.35215 3.575 7.49215 4.1 7.49215 4.68ZM3.80215 6.375C4.45215 6.375 4.93715 6.23 5.25715 5.94C5.57715 5.64 5.73715 5.22 5.73715 4.68C5.73715 3.54 5.09215 2.97 3.80215 2.97H1.91215V6.375H3.80215ZM12.708 12.135C11.928 12.135 11.223 11.96 10.593 11.61C9.96305 11.25 9.46805 10.75 9.10805 10.11C8.74805 9.46 8.56805 8.71 8.56805 7.86C8.56805 7.02 8.75305 6.275 9.12305 5.625C9.49305 4.975 9.99805 4.475 10.638 4.125C11.278 3.775 11.993 3.6 12.783 3.6C13.573 3.6 14.288 3.775 14.928 4.125C15.568 4.475 16.073 4.975 16.443 5.625C16.813 6.275 16.998 7.02 16.998 7.86C16.998 8.7 16.808 9.445 16.428 10.095C16.048 10.745 15.528 11.25 14.868 11.61C14.218 11.96 13.498 12.135 12.708 12.135ZM12.708 10.65C13.148 10.65 13.558 10.545 13.938 10.335C14.328 10.125 14.643 9.81 14.883 9.39C15.123 8.97 15.243 8.46 15.243 7.86C15.243 7.26 15.128 6.755 14.898 6.345C14.668 5.925 14.363 5.61 13.983 5.4C13.603 5.19 13.193 5.085 12.753 5.085C12.313 5.085 11.903 5.19 11.523 5.4C11.153 5.61 10.858 5.925 10.638 6.345C10.418 6.755 10.308 7.26 10.308 7.86C10.308 8.75 10.533 9.44 10.983 9.93C11.443 10.41 12.018 10.65 12.708 10.65ZM20.3985 4.935C20.6485 4.515 20.9785 4.19 21.3885 3.96C21.8085 3.72 22.3035 3.6 22.8735 3.6V5.37H22.4385C21.7685 5.37 21.2585 5.54 20.9085 5.88C20.5685 6.22 20.3985 6.81 20.3985 7.65V12H18.6885V3.735H20.3985V4.935ZM26.4403 5.13V9.705C26.4403 10.015 26.5103 10.24 26.6503 10.38C26.8003 10.51 27.0503 10.575 27.4003 10.575H28.4503V12H27.1003C26.3303 12 25.7403 11.82 25.3303 11.46C24.9203 11.1 24.7153 10.515 24.7153 9.705V5.13H23.7403V3.735H24.7153V1.68H26.4403V3.735H28.4503V5.13H26.4403ZM33.4914 5.13H31.9614V12H30.2364V5.13H29.2614V3.735H30.2364V3.15C30.2364 2.2 30.4864 1.51 30.9864 1.08C31.4964 0.64 32.2914 0.42 33.3714 0.42V1.845C32.8514 1.845 32.4864 1.945 32.2764 2.145C32.0664 2.335 31.9614 2.67 31.9614 3.15V3.735H33.4914V5.13ZM38.5918 12.135C37.8118 12.135 37.1068 11.96 36.4768 11.61C35.8468 11.25 35.3518 10.75 34.9918 10.11C34.6318 9.46 34.4518 8.71 34.4518 7.86C34.4518 7.02 34.6368 6.275 35.0068 5.625C35.3768 4.975 35.8818 4.475 36.5218 4.125C37.1618 3.775 37.8768 3.6 38.6668 3.6C39.4568 3.6 40.1718 3.775 40.8118 4.125C41.4518 4.475 41.9568 4.975 42.3268 5.625C42.6968 6.275 42.8818 7.02 42.8818 7.86C42.8818 8.7 42.6918 9.445 42.3118 10.095C41.9318 10.745 41.4118 11.25 40.7518 11.61C40.1018 11.96 39.3818 12.135 38.5918 12.135ZM38.5918 10.65C39.0318 10.65 39.4418 10.545 39.8218 10.335C40.2118 10.125 40.5268 9.81 40.7668 9.39C41.0068 8.97 41.1268 8.46 41.1268 7.86C41.1268 7.26 41.0118 6.755 40.7818 6.345C40.5518 5.925 40.2468 5.61 39.8668 5.4C39.4868 5.19 39.0768 5.085 38.6368 5.085C38.1968 5.085 37.7868 5.19 37.4068 5.4C37.0368 5.61 36.7418 5.925 36.5218 6.345C36.3018 6.755 36.1918 7.26 36.1918 7.86C36.1918 8.75 36.4168 9.44 36.8668 9.93C37.3268 10.41 37.9018 10.65 38.5918 10.65ZM46.2823 0.9V12H44.5723V0.9H46.2823ZM49.3973 2.64C49.0873 2.64 48.8273 2.535 48.6173 2.325C48.4073 2.115 48.3023 1.855 48.3023 1.545C48.3023 1.235 48.4073 0.974999 48.6173 0.765C48.8273 0.555 49.0873 0.449999 49.3973 0.449999C49.6973 0.449999 49.9523 0.555 50.1623 0.765C50.3723 0.974999 50.4773 1.235 50.4773 1.545C50.4773 1.855 50.3723 2.115 50.1623 2.325C49.9523 2.535 49.6973 2.64 49.3973 2.64ZM50.2373 3.735V12H48.5273V3.735H50.2373ZM56.0674 12.135C55.2874 12.135 54.5824 11.96 53.9524 11.61C53.3224 11.25 52.8274 10.75 52.4674 10.11C52.1074 9.46 51.9274 8.71 51.9274 7.86C51.9274 7.02 52.1124 6.275 52.4824 5.625C52.8524 4.975 53.3574 4.475 53.9974 4.125C54.6374 3.775 55.3524 3.6 56.1424 3.6C56.9324 3.6 57.6474 3.775 58.2874 4.125C58.9274 4.475 59.4324 4.975 59.8024 5.625C60.1724 6.275 60.3574 7.02 60.3574 7.86C60.3574 8.7 60.1674 9.445 59.7874 10.095C59.4074 10.745 58.8874 11.25 58.2274 11.61C57.5774 11.96 56.8574 12.135 56.0674 12.135ZM56.0674 10.65C56.5074 10.65 56.9174 10.545 57.2974 10.335C57.6874 10.125 58.0024 9.81 58.2424 9.39C58.4824 8.97 58.6024 8.46 58.6024 7.86C58.6024 7.26 58.4874 6.755 58.2574 6.345C58.0274 5.925 57.7224 5.61 57.3424 5.4C56.9624 5.19 56.5524 5.085 56.1124 5.085C55.6724 5.085 55.2624 5.19 54.8824 5.4C54.5124 5.61 54.2174 5.925 53.9974 6.345C53.7774 6.755 53.6674 7.26 53.6674 7.86C53.6674 8.75 53.8924 9.44 54.3424 9.93C54.8024 10.41 55.3774 10.65 56.0674 10.65Z" fill="#344563"/>
</svg>
