<svg width="1440" height="72" viewBox="0 0 1440 72" fill="none" xmlns="http://www.w3.org/2000/svg">
<path d="M170.755 29.364V42H167.677V34.098L164.941 42H162.277L159.523 34.08V42H156.445V29.364H160.207L163.645 38.166L167.011 29.364H170.755ZM175.202 31.956L177.614 38.112L179.864 31.956H183.266L177.002 46.788H173.618L175.976 41.622L171.764 31.956H175.202ZM190.97 39.642H195.074V42H187.892V29.274H190.97V39.642ZM201.186 31.83C202.182 31.83 203.07 32.04 203.85 32.46C204.642 32.868 205.26 33.462 205.704 34.242C206.16 35.022 206.388 35.934 206.388 36.978C206.388 38.022 206.16 38.934 205.704 39.714C205.26 40.494 204.642 41.094 203.85 41.514C203.07 41.922 202.182 42.126 201.186 42.126C200.19 42.126 199.296 41.922 198.504 41.514C197.712 41.094 197.088 40.494 196.632 39.714C196.188 38.934 195.966 38.022 195.966 36.978C195.966 35.934 196.188 35.022 196.632 34.242C197.088 33.462 197.712 32.868 198.504 32.46C199.296 32.04 200.19 31.83 201.186 31.83ZM201.186 34.494C200.598 34.494 200.1 34.71 199.692 35.142C199.296 35.562 199.098 36.174 199.098 36.978C199.098 37.782 199.296 38.394 199.692 38.814C200.1 39.234 200.598 39.444 201.186 39.444C201.774 39.444 202.266 39.234 202.662 38.814C203.058 38.394 203.256 37.782 203.256 36.978C203.256 36.174 203.058 35.562 202.662 35.142C202.266 34.71 201.774 34.494 201.186 34.494ZM211.8 31.83C212.568 31.83 213.228 32.004 213.78 32.352C214.332 32.7 214.74 33.174 215.004 33.774V31.956H218.064V41.946C218.064 42.882 217.884 43.722 217.524 44.466C217.164 45.222 216.612 45.822 215.868 46.266C215.124 46.71 214.2 46.932 213.096 46.932C211.584 46.932 210.372 46.572 209.46 45.852C208.56 45.144 208.02 44.178 207.84 42.954H210.882C210.978 43.362 211.194 43.68 211.53 43.908C211.878 44.136 212.328 44.25 212.88 44.25C213.516 44.25 214.026 44.064 214.41 43.692C214.806 43.332 215.004 42.75 215.004 41.946V40.182C214.74 40.782 214.332 41.256 213.78 41.604C213.228 41.952 212.568 42.126 211.8 42.126C210.972 42.126 210.228 41.922 209.568 41.514C208.92 41.094 208.404 40.494 208.02 39.714C207.648 38.934 207.462 38.022 207.462 36.978C207.462 35.922 207.648 35.01 208.02 34.242C208.404 33.462 208.92 32.868 209.568 32.46C210.228 32.04 210.972 31.83 211.8 31.83ZM212.79 34.53C212.13 34.53 211.596 34.746 211.188 35.178C210.792 35.61 210.594 36.21 210.594 36.978C210.594 37.746 210.792 38.346 211.188 38.778C211.596 39.21 212.13 39.426 212.79 39.426C213.438 39.426 213.966 39.204 214.374 38.76C214.794 38.316 215.004 37.722 215.004 36.978C215.004 36.222 214.794 35.628 214.374 35.196C213.966 34.752 213.438 34.53 212.79 34.53ZM224.881 31.83C225.877 31.83 226.765 32.04 227.545 32.46C228.337 32.868 228.955 33.462 229.399 34.242C229.855 35.022 230.083 35.934 230.083 36.978C230.083 38.022 229.855 38.934 229.399 39.714C228.955 40.494 228.337 41.094 227.545 41.514C226.765 41.922 225.877 42.126 224.881 42.126C223.885 42.126 222.991 41.922 222.199 41.514C221.407 41.094 220.783 40.494 220.327 39.714C219.883 38.934 219.661 38.022 219.661 36.978C219.661 35.934 219.883 35.022 220.327 34.242C220.783 33.462 221.407 32.868 222.199 32.46C222.991 32.04 223.885 31.83 224.881 31.83ZM224.881 34.494C224.293 34.494 223.795 34.71 223.387 35.142C222.991 35.562 222.793 36.174 222.793 36.978C222.793 37.782 222.991 38.394 223.387 38.814C223.795 39.234 224.293 39.444 224.881 39.444C225.469 39.444 225.961 39.234 226.357 38.814C226.753 38.394 226.951 37.782 226.951 36.978C226.951 36.174 226.753 35.562 226.357 35.142C225.961 34.71 225.469 34.494 224.881 34.494Z" fill="#6070FF"/>
<g clip-path="url(#clip0_34_1133)">
<path d="M1059.49 33.68C1059.49 34.21 1059.37 34.71 1059.12 35.18C1058.87 35.65 1058.47 36.035 1057.92 36.335C1057.37 36.625 1056.66 36.77 1055.8 36.77H1053.91V41H1052.2V30.575H1055.8C1056.6 30.575 1057.28 30.715 1057.83 30.995C1058.39 31.265 1058.8 31.635 1059.07 32.105C1059.35 32.575 1059.49 33.1 1059.49 33.68ZM1055.8 35.375C1056.45 35.375 1056.94 35.23 1057.26 34.94C1057.58 34.64 1057.74 34.22 1057.74 33.68C1057.74 32.54 1057.09 31.97 1055.8 31.97H1053.91V35.375H1055.8ZM1064.71 41.135C1063.93 41.135 1063.22 40.96 1062.59 40.61C1061.96 40.25 1061.47 39.75 1061.11 39.11C1060.75 38.46 1060.57 37.71 1060.57 36.86C1060.57 36.02 1060.75 35.275 1061.12 34.625C1061.49 33.975 1062 33.475 1062.64 33.125C1063.28 32.775 1063.99 32.6 1064.78 32.6C1065.57 32.6 1066.29 32.775 1066.93 33.125C1067.57 33.475 1068.07 33.975 1068.44 34.625C1068.81 35.275 1069 36.02 1069 36.86C1069 37.7 1068.81 38.445 1068.43 39.095C1068.05 39.745 1067.53 40.25 1066.87 40.61C1066.22 40.96 1065.5 41.135 1064.71 41.135ZM1064.71 39.65C1065.15 39.65 1065.56 39.545 1065.94 39.335C1066.33 39.125 1066.64 38.81 1066.88 38.39C1067.12 37.97 1067.24 37.46 1067.24 36.86C1067.24 36.26 1067.13 35.755 1066.9 35.345C1066.67 34.925 1066.36 34.61 1065.98 34.4C1065.6 34.19 1065.19 34.085 1064.75 34.085C1064.31 34.085 1063.9 34.19 1063.52 34.4C1063.15 34.61 1062.86 34.925 1062.64 35.345C1062.42 35.755 1062.31 36.26 1062.31 36.86C1062.31 37.75 1062.53 38.44 1062.98 38.93C1063.44 39.41 1064.02 39.65 1064.71 39.65ZM1072.4 33.935C1072.65 33.515 1072.98 33.19 1073.39 32.96C1073.81 32.72 1074.3 32.6 1074.87 32.6V34.37H1074.44C1073.77 34.37 1073.26 34.54 1072.91 34.88C1072.57 35.22 1072.4 35.81 1072.4 36.65V41H1070.69V32.735H1072.4V33.935ZM1078.44 34.13V38.705C1078.44 39.015 1078.51 39.24 1078.65 39.38C1078.8 39.51 1079.05 39.575 1079.4 39.575H1080.45V41H1079.1C1078.33 41 1077.74 40.82 1077.33 40.46C1076.92 40.1 1076.72 39.515 1076.72 38.705V34.13H1075.74V32.735H1076.72V30.68H1078.44V32.735H1080.45V34.13H1078.44ZM1085.49 34.13H1083.96V41H1082.24V34.13H1081.26V32.735H1082.24V32.15C1082.24 31.2 1082.49 30.51 1082.99 30.08C1083.5 29.64 1084.29 29.42 1085.37 29.42V30.845C1084.85 30.845 1084.49 30.945 1084.28 31.145C1084.07 31.335 1083.96 31.67 1083.96 32.15V32.735H1085.49V34.13ZM1090.59 41.135C1089.81 41.135 1089.11 40.96 1088.48 40.61C1087.85 40.25 1087.35 39.75 1086.99 39.11C1086.63 38.46 1086.45 37.71 1086.45 36.86C1086.45 36.02 1086.64 35.275 1087.01 34.625C1087.38 33.975 1087.88 33.475 1088.52 33.125C1089.16 32.775 1089.88 32.6 1090.67 32.6C1091.46 32.6 1092.17 32.775 1092.81 33.125C1093.45 33.475 1093.96 33.975 1094.33 34.625C1094.7 35.275 1094.88 36.02 1094.88 36.86C1094.88 37.7 1094.69 38.445 1094.31 39.095C1093.93 39.745 1093.41 40.25 1092.75 40.61C1092.1 40.96 1091.38 41.135 1090.59 41.135ZM1090.59 39.65C1091.03 39.65 1091.44 39.545 1091.82 39.335C1092.21 39.125 1092.53 38.81 1092.77 38.39C1093.01 37.97 1093.13 37.46 1093.13 36.86C1093.13 36.26 1093.01 35.755 1092.78 35.345C1092.55 34.925 1092.25 34.61 1091.87 34.4C1091.49 34.19 1091.08 34.085 1090.64 34.085C1090.2 34.085 1089.79 34.19 1089.41 34.4C1089.04 34.61 1088.74 34.925 1088.52 35.345C1088.3 35.755 1088.19 36.26 1088.19 36.86C1088.19 37.75 1088.42 38.44 1088.87 38.93C1089.33 39.41 1089.9 39.65 1090.59 39.65ZM1098.28 29.9V41H1096.57V29.9H1098.28ZM1101.4 31.64C1101.09 31.64 1100.83 31.535 1100.62 31.325C1100.41 31.115 1100.3 30.855 1100.3 30.545C1100.3 30.235 1100.41 29.975 1100.62 29.765C1100.83 29.555 1101.09 29.45 1101.4 29.45C1101.7 29.45 1101.95 29.555 1102.16 29.765C1102.37 29.975 1102.48 30.235 1102.48 30.545C1102.48 30.855 1102.37 31.115 1102.16 31.325C1101.95 31.535 1101.7 31.64 1101.4 31.64ZM1102.24 32.735V41H1100.53V32.735H1102.24ZM1108.07 41.135C1107.29 41.135 1106.58 40.96 1105.95 40.61C1105.32 40.25 1104.83 39.75 1104.47 39.11C1104.11 38.46 1103.93 37.71 1103.93 36.86C1103.93 36.02 1104.11 35.275 1104.48 34.625C1104.85 33.975 1105.36 33.475 1106 33.125C1106.64 32.775 1107.35 32.6 1108.14 32.6C1108.93 32.6 1109.65 32.775 1110.29 33.125C1110.93 33.475 1111.43 33.975 1111.8 34.625C1112.17 35.275 1112.36 36.02 1112.36 36.86C1112.36 37.7 1112.17 38.445 1111.79 39.095C1111.41 39.745 1110.89 40.25 1110.23 40.61C1109.58 40.96 1108.86 41.135 1108.07 41.135ZM1108.07 39.65C1108.51 39.65 1108.92 39.545 1109.3 39.335C1109.69 39.125 1110 38.81 1110.24 38.39C1110.48 37.97 1110.6 37.46 1110.6 36.86C1110.6 36.26 1110.49 35.755 1110.26 35.345C1110.03 34.925 1109.72 34.61 1109.34 34.4C1108.96 34.19 1108.55 34.085 1108.11 34.085C1107.67 34.085 1107.26 34.19 1106.88 34.4C1106.51 34.61 1106.22 34.925 1106 35.345C1105.78 35.755 1105.67 36.26 1105.67 36.86C1105.67 37.75 1105.89 38.44 1106.34 38.93C1106.8 39.41 1107.38 39.65 1108.07 39.65Z" fill="#344563"/>
<path d="M1152.65 38.705H1148.18L1147.37 41H1145.54L1149.44 30.575H1151.41L1155.29 41H1153.46L1152.65 38.705ZM1152.17 37.385L1150.42 32.435L1148.66 37.385H1152.17ZM1161.3 32.63C1162.02 32.63 1162.66 32.8 1163.22 33.14C1163.79 33.48 1164.24 33.97 1164.56 34.61C1164.88 35.25 1165.04 36 1165.04 36.86C1165.04 37.73 1164.88 38.485 1164.56 39.125C1164.24 39.765 1163.79 40.255 1163.22 40.595C1162.66 40.935 1162.02 41.105 1161.3 41.105C1160.55 41.105 1159.91 40.92 1159.38 40.55C1158.85 40.18 1158.48 39.69 1158.27 39.08V41H1156.56V29.9H1158.27V34.655C1158.48 34.045 1158.85 33.555 1159.38 33.185C1159.91 32.815 1160.55 32.63 1161.3 32.63ZM1160.78 34.13C1160.3 34.13 1159.87 34.245 1159.49 34.475C1159.11 34.695 1158.81 35.015 1158.59 35.435C1158.37 35.845 1158.26 36.32 1158.26 36.86C1158.26 37.41 1158.37 37.89 1158.59 38.3C1158.81 38.71 1159.11 39.03 1159.49 39.26C1159.87 39.48 1160.3 39.59 1160.78 39.59C1161.54 39.59 1162.15 39.35 1162.61 38.87C1163.07 38.38 1163.3 37.71 1163.3 36.86C1163.3 36.02 1163.07 35.355 1162.61 34.865C1162.15 34.375 1161.54 34.13 1160.78 34.13ZM1170.46 32.63C1171.26 32.63 1171.98 32.8 1172.62 33.14C1173.26 33.48 1173.76 33.97 1174.12 34.61C1174.48 35.25 1174.66 36 1174.66 36.86C1174.66 37.73 1174.48 38.485 1174.12 39.125C1173.76 39.765 1173.26 40.255 1172.62 40.595C1171.98 40.935 1171.26 41.105 1170.46 41.105C1169.66 41.105 1168.94 40.935 1168.3 40.595C1167.67 40.255 1167.17 39.765 1166.8 39.125C1166.44 38.475 1166.26 37.72 1166.26 36.86C1166.26 36 1166.44 35.25 1166.8 34.61C1167.17 33.97 1167.67 33.48 1168.3 33.14C1168.94 32.8 1169.66 32.63 1170.46 32.63ZM1170.46 34.115C1170.02 34.115 1169.62 34.215 1169.25 34.415C1168.88 34.615 1168.58 34.925 1168.35 35.345C1168.13 35.755 1168.02 36.26 1168.02 36.86C1168.02 37.47 1168.13 37.98 1168.35 38.39C1168.58 38.8 1168.88 39.105 1169.25 39.305C1169.62 39.505 1170.02 39.605 1170.46 39.605C1170.9 39.605 1171.31 39.505 1171.68 39.305C1172.05 39.105 1172.34 38.8 1172.56 38.39C1172.79 37.98 1172.91 37.47 1172.91 36.86C1172.91 36.26 1172.79 35.755 1172.56 35.345C1172.34 34.925 1172.05 34.615 1171.68 34.415C1171.31 34.215 1170.9 34.115 1170.46 34.115ZM1183.93 32.735V41H1182.2V39.2C1181.99 39.81 1181.63 40.285 1181.11 40.625C1180.59 40.955 1179.98 41.12 1179.29 41.12C1178.33 41.12 1177.56 40.81 1176.98 40.19C1176.4 39.57 1176.11 38.685 1176.11 37.535V32.735H1177.82V37.355C1177.82 38.105 1178.01 38.685 1178.39 39.095C1178.77 39.495 1179.29 39.695 1179.95 39.695C1180.63 39.695 1181.18 39.475 1181.59 39.035C1182 38.595 1182.2 37.955 1182.2 37.115V32.735H1183.93ZM1190.13 39.515V41H1189.08C1188.2 41 1187.53 40.79 1187.07 40.37C1186.62 39.94 1186.4 39.23 1186.4 38.24V34.19H1185.21V32.735H1186.4V30.68H1188.12V32.735H1190.12V34.19H1188.12V38.27C1188.12 38.74 1188.21 39.065 1188.38 39.245C1188.56 39.425 1188.87 39.515 1189.31 39.515H1190.13Z" fill="#344563"/>
<path d="M1228.88 30.305C1230.18 30.305 1231.26 30.635 1232.12 31.295C1232.98 31.955 1233.56 32.85 1233.86 33.98H1232.05C1231.8 33.34 1231.4 32.835 1230.85 32.465C1230.31 32.085 1229.64 31.895 1228.85 31.895C1228.22 31.895 1227.66 32.05 1227.16 32.36C1226.67 32.67 1226.28 33.115 1225.99 33.695C1225.71 34.265 1225.57 34.935 1225.57 35.705C1225.57 36.465 1225.71 37.135 1225.99 37.715C1226.28 38.285 1226.67 38.725 1227.16 39.035C1227.66 39.345 1228.22 39.5 1228.85 39.5C1229.64 39.5 1230.31 39.315 1230.85 38.945C1231.4 38.565 1231.8 38.06 1232.05 37.43H1233.86C1233.56 38.56 1232.98 39.455 1232.12 40.115C1231.26 40.765 1230.18 41.09 1228.88 41.09C1227.88 41.09 1227 40.865 1226.23 40.415C1225.46 39.955 1224.86 39.32 1224.44 38.51C1224.02 37.69 1223.81 36.755 1223.81 35.705C1223.81 34.655 1224.02 33.725 1224.44 32.915C1224.86 32.095 1225.46 31.455 1226.23 30.995C1227 30.535 1227.88 30.305 1228.88 30.305ZM1239.35 32.63C1240.15 32.63 1240.87 32.8 1241.51 33.14C1242.15 33.48 1242.65 33.97 1243.01 34.61C1243.37 35.25 1243.55 36 1243.55 36.86C1243.55 37.73 1243.37 38.485 1243.01 39.125C1242.65 39.765 1242.15 40.255 1241.51 40.595C1240.87 40.935 1240.15 41.105 1239.35 41.105C1238.55 41.105 1237.83 40.935 1237.19 40.595C1236.56 40.255 1236.06 39.765 1235.69 39.125C1235.33 38.475 1235.15 37.72 1235.15 36.86C1235.15 36 1235.33 35.25 1235.69 34.61C1236.06 33.97 1236.56 33.48 1237.19 33.14C1237.83 32.8 1238.55 32.63 1239.35 32.63ZM1239.35 34.115C1238.91 34.115 1238.5 34.215 1238.13 34.415C1237.76 34.615 1237.46 34.925 1237.23 35.345C1237.01 35.755 1236.9 36.26 1236.9 36.86C1236.9 37.47 1237.01 37.98 1237.23 38.39C1237.46 38.8 1237.76 39.105 1238.13 39.305C1238.5 39.505 1238.91 39.605 1239.35 39.605C1239.79 39.605 1240.19 39.505 1240.56 39.305C1240.93 39.105 1241.23 38.8 1241.45 38.39C1241.68 37.98 1241.79 37.47 1241.79 36.86C1241.79 36.26 1241.68 35.755 1241.45 35.345C1241.23 34.925 1240.93 34.615 1240.56 34.415C1240.19 34.215 1239.79 34.115 1239.35 34.115ZM1249.81 32.6C1250.77 32.6 1251.54 32.91 1252.12 33.53C1252.7 34.15 1252.99 35.035 1252.99 36.185V41H1251.28V36.365C1251.28 35.625 1251.09 35.055 1250.71 34.655C1250.33 34.245 1249.81 34.04 1249.15 34.04C1248.47 34.04 1247.93 34.26 1247.52 34.7C1247.11 35.13 1246.9 35.765 1246.9 36.605V41H1245.19V32.735H1246.9V34.55C1247.12 33.93 1247.49 33.45 1248.01 33.11C1248.53 32.77 1249.13 32.6 1249.81 32.6ZM1259.15 39.515V41H1258.1C1257.22 41 1256.55 40.79 1256.09 40.37C1255.64 39.94 1255.41 39.23 1255.41 38.24V34.19H1254.23V32.735H1255.41V30.68H1257.14V32.735H1259.13V34.19H1257.14V38.27C1257.14 38.74 1257.22 39.065 1257.39 39.245C1257.57 39.425 1257.88 39.515 1258.32 39.515H1259.15ZM1264.06 32.63C1264.81 32.63 1265.45 32.815 1265.98 33.185C1266.51 33.555 1266.89 34.045 1267.11 34.655V32.735H1268.82V41H1267.11V39.08C1266.89 39.69 1266.51 40.18 1265.98 40.55C1265.45 40.92 1264.81 41.105 1264.06 41.105C1263.34 41.105 1262.7 40.935 1262.13 40.595C1261.57 40.255 1261.13 39.765 1260.81 39.125C1260.49 38.485 1260.33 37.73 1260.33 36.86C1260.33 36 1260.49 35.25 1260.81 34.61C1261.13 33.97 1261.57 33.48 1262.13 33.14C1262.7 32.8 1263.34 32.63 1264.06 32.63ZM1264.59 34.13C1263.83 34.13 1263.22 34.375 1262.76 34.865C1262.31 35.345 1262.08 36.01 1262.08 36.86C1262.08 37.71 1262.31 38.38 1262.76 38.87C1263.22 39.35 1263.83 39.59 1264.59 39.59C1265.07 39.59 1265.5 39.48 1265.88 39.26C1266.26 39.03 1266.56 38.71 1266.78 38.3C1267 37.89 1267.11 37.41 1267.11 36.86C1267.11 36.32 1267 35.845 1266.78 35.435C1266.56 35.015 1266.26 34.695 1265.88 34.475C1265.5 34.245 1265.07 34.13 1264.59 34.13ZM1274.54 32.63C1275.61 32.63 1276.5 32.915 1277.2 33.485C1277.9 34.045 1278.33 34.81 1278.5 35.78H1276.69C1276.59 35.26 1276.34 34.855 1275.95 34.565C1275.57 34.265 1275.09 34.115 1274.51 34.115C1273.85 34.115 1273.3 34.35 1272.86 34.82C1272.42 35.28 1272.2 35.96 1272.2 36.86C1272.2 37.76 1272.42 38.445 1272.86 38.915C1273.3 39.385 1273.85 39.62 1274.51 39.62C1275.09 39.62 1275.57 39.47 1275.95 39.17C1276.34 38.87 1276.59 38.46 1276.69 37.94H1278.5C1278.33 38.91 1277.9 39.68 1277.2 40.25C1276.5 40.82 1275.61 41.105 1274.54 41.105C1273.74 41.105 1273.03 40.935 1272.41 40.595C1271.8 40.255 1271.32 39.765 1270.97 39.125C1270.62 38.485 1270.45 37.73 1270.45 36.86C1270.45 36 1270.62 35.25 1270.97 34.61C1271.32 33.97 1271.8 33.48 1272.41 33.14C1273.03 32.8 1273.74 32.63 1274.54 32.63ZM1284.31 39.515V41H1283.26C1282.38 41 1281.71 40.79 1281.25 40.37C1280.8 39.94 1280.58 39.23 1280.58 38.24V34.19H1279.39V32.735H1280.58V30.68H1282.3V32.735H1284.3V34.19H1282.3V38.27C1282.3 38.74 1282.39 39.065 1282.56 39.245C1282.74 39.425 1283.05 39.515 1283.49 39.515H1284.31Z" fill="#344563"/>
</g>
<defs>
<clipPath id="clip0_34_1133">
<rect width="258" height="40" fill="white" transform="translate(1039 16)"/>
</clipPath>
</defs>
</svg>
